# xmcd
#
# Track frame offsets:
# 150
# 19050
# 36450
# 57075
# 74625
# 92400
# 111150
# 130050
# 150300
# 165675
# 184050
# 201000
# 216600
# 232500
# 250425
# 271200
# 284848
# 304348
# 320848
# 337348
#
# Disc length: 4777 seconds
#
# Revision: 0
# Processed by: cddbd v1.5.2PL0 Copyright (c) Steve Scherf et al.
# Submitted via: Audion 3.0.2 (http://www.panic.com/audion/)
#
DISCID=3312a714
DTITLE=Criag_David - Born_to_Do_It
DYEAR=1900
DGENRE=
TTITLE0=Fill_Me_In
TTITLE1=Cant_Be_Messin_Round
TTITLE2=Rendezvous
TTITLE3=7_Days
TTITLE4=Follow_Me
TTITLE5=Key_To_My_Heart
TTITLE6=Fill_Me_In_Pt2
TTITLE7=Last_Night
TTITLE8=Walking_Away
TTITLE9=Time_To_Party
TTITLE10=Booty_Man
TTITLE11=Once_In_A_Lifetime
TTITLE12=You_Know_What
TTITLE13=Rewind
TTITLE14=7_Days(Full_Crew)
TTITLE15=Fill_Me_In(Club)
TTITLE16=Walking_Away(Ignorance)
TTITLE17=7_Days(Mos_Def)
TTITLE18=Fill_Me_In(Artful)
TTITLE19=Walking_Away(R)
EXTD=
EXTT0=
EXTT1=
EXTT2=
EXTT3=
EXTT4=
EXTT5=
EXTT6=
EXTT7=
EXTT8=
EXTT9=
EXTT10=
EXTT11=
EXTT12=
EXTT13=
EXTT14=
EXTT15=
EXTT16=
EXTT17=
EXTT18=
EXTT19=
PLAYORDER=
